<?xml version="1.0" encoding="UTF-8" standalone="no"?><svg xmlns="http://www.w3.org/2000/svg" xmlns:xlink="http://www.w3.org/1999/xlink" contentStyleType="text/css" height="417px" preserveAspectRatio="none" style="width:610px;height:417px;background:#FFFFFF;" version="1.1" viewBox="0 0 610 417" width="610px" zoomAndPan="magnify"><defs/><g><!--MD5=[9c5b00d9b5f4f0984fd7d4e7157cb026]
class SeatReservationSystem--><g id="elem_SeatReservationSystem"><rect codeLine="2" fill="#F1F1F1" height="278.8359" id="SeatReservationSystem" rx="2.5" ry="2.5" style="stroke:#181818;stroke-width:0.5;" width="596" x="7" y="7"/><ellipse cx="222.25" cy="23" fill="#ADD1B2" rx="11" ry="11" style="stroke:#181818;stroke-width:1.0;"/><path d="M224.7231,29.1431 Q224.1421,29.4419 223.5029,29.5913 Q222.8638,29.7407 222.1582,29.7407 Q219.6514,29.7407 218.3315,28.0889 Q217.0117,26.437 217.0117,23.3159 Q217.0117,20.1865 218.3315,18.5347 Q219.6514,16.8828 222.1582,16.8828 Q222.8638,16.8828 223.5112,17.0322 Q224.1587,17.1816 224.7231,17.4805 L224.7231,20.2031 Q224.0923,19.6221 223.4988,19.3523 Q222.9053,19.0825 222.2744,19.0825 Q220.9297,19.0825 220.2449,20.1492 Q219.5601,21.2158 219.5601,23.3159 Q219.5601,25.4077 220.2449,26.4744 Q220.9297,27.541 222.2744,27.541 Q222.9053,27.541 223.4988,27.2712 Q224.0923,27.0015 224.7231,26.4204 Z " fill="#000000"/><text fill="#000000" font-family="sans-serif" font-size="14" lengthAdjust="spacing" textLength="157" x="242.75" y="28.291">SeatReservationSystem</text><line style="stroke:#181818;stroke-width:0.5;" x1="8" x2="602" y1="39" y2="39"/><rect fill="none" height="6" style="stroke:#C82930;stroke-width:1.0;" width="6" x="15" y="49.7441"/><text fill="#000000" font-family="sans-serif" font-size="14" lengthAdjust="spacing" textLength="62" x="27" y="56.5352">Rows: int</text><rect fill="none" height="6" style="stroke:#C82930;stroke-width:1.0;" width="6" x="15" y="66.2324"/><text fill="#000000" font-family="sans-serif" font-size="14" lengthAdjust="spacing" textLength="113" x="27" y="73.0234">SeatsPerRow: int</text><rect fill="none" height="6" style="stroke:#C82930;stroke-width:1.0;" width="6" x="15" y="82.7207"/><text fill="#000000" font-family="sans-serif" font-size="14" lengthAdjust="spacing" textLength="194" x="27" y="89.5117">ReservedPercentage: double</text><rect fill="none" height="6" style="stroke:#C82930;stroke-width:1.0;" width="6" x="15" y="99.209"/><text fill="#000000" font-family="sans-serif" font-size="14" lengthAdjust="spacing" textLength="183" x="27" y="106">ReservationDataFile: string</text><rect fill="none" height="6" style="stroke:#C82930;stroke-width:1.0;" width="6" x="15" y="115.6973"/><text fill="#000000" font-family="sans-serif" font-size="14" lengthAdjust="spacing" textLength="88" x="27" y="122.4883">seats: bool[,]</text><line style="stroke:#181818;stroke-width:0.5;" x1="8" x2="602" y1="129.4414" y2="129.4414"/><ellipse cx="18" cy="143.1855" fill="#84BE84" rx="3" ry="3" style="stroke:#038048;stroke-width:1.0;"/><text fill="#000000" font-family="sans-serif" font-size="14" lengthAdjust="spacing" textLength="167" x="27" y="146.9766">SeatReservationSystem()</text><rect fill="#F24D5C" height="6" style="stroke:#C82930;stroke-width:1.0;" width="6" x="15" y="156.6738"/><text fill="#000000" font-family="sans-serif" font-size="14" lengthAdjust="spacing" textLength="141" x="27" y="163.4648">InitializeSeats(): void</text><rect fill="#F24D5C" height="6" style="stroke:#C82930;stroke-width:1.0;" width="6" x="15" y="173.1621"/><text fill="#000000" font-family="sans-serif" font-size="14" lengthAdjust="spacing" textLength="137" x="27" y="179.9531">PrintSeatMap(): void</text><rect fill="#F24D5C" height="6" style="stroke:#C82930;stroke-width:1.0;" width="6" x="15" y="189.6504"/><text fill="#000000" font-family="sans-serif" font-size="14" lengthAdjust="spacing" textLength="570" x="27" y="196.4414">SaveReservationData(reservations: Dictionary&lt;string, List&lt;Tuple&lt;int, int&gt;&gt;&gt;): void</text><rect fill="#F24D5C" height="6" style="stroke:#C82930;stroke-width:1.0;" width="6" x="15" y="206.1387"/><text fill="#000000" font-family="sans-serif" font-size="14" lengthAdjust="spacing" textLength="451" x="27" y="212.9297">LoadReservationData(): Dictionary&lt;string, List&lt;Tuple&lt;int, int&gt;&gt;&gt;</text><ellipse cx="18" cy="225.627" fill="#84BE84" rx="3" ry="3" style="stroke:#038048;stroke-width:1.0;"/><text fill="#000000" font-family="sans-serif" font-size="14" lengthAdjust="spacing" textLength="74" x="27" y="229.418">Run(): void</text><rect fill="#F24D5C" height="6" style="stroke:#C82930;stroke-width:1.0;" width="6" x="15" y="239.1152"/><text fill="#000000" font-family="sans-serif" font-size="14" lengthAdjust="spacing" textLength="544" x="27" y="245.9063">MakeReservation(reservations: Dictionary&lt;string, List&lt;Tuple&lt;int, int&gt;&gt;&gt;): void</text><rect fill="#F24D5C" height="6" style="stroke:#C82930;stroke-width:1.0;" width="6" x="15" y="255.6035"/><text fill="#000000" font-family="sans-serif" font-size="14" lengthAdjust="spacing" textLength="554" x="27" y="262.3945">CancelReservation(reservations: Dictionary&lt;string, List&lt;Tuple&lt;int, int&gt;&gt;&gt;): void</text><rect fill="#F24D5C" height="6" style="stroke:#C82930;stroke-width:1.0;" width="6" x="15" y="272.0918"/><text fill="#000000" font-family="sans-serif" font-size="14" lengthAdjust="spacing" textLength="554" x="27" y="278.8828">ModifyReservation(reservations: Dictionary&lt;string, List&lt;Tuple&lt;int, int&gt;&gt;&gt;): void</text></g><!--MD5=[175f95e045c1a44aed0b30df3abe0e5c]
class Program--><g id="elem_Program"><rect codeLine="19" fill="#F1F1F1" height="64.4883" id="Program" rx="2.5" ry="2.5" style="stroke:#181818;stroke-width:0.5;" width="194" x="208" y="345.83"/><ellipse cx="271.25" cy="361.83" fill="#ADD1B2" rx="11" ry="11" style="stroke:#181818;stroke-width:1.0;"/><path d="M273.7231,367.9731 Q273.1421,368.2719 272.5029,368.4213 Q271.8638,368.5707 271.1582,368.5707 Q268.6514,368.5707 267.3315,366.9189 Q266.0117,365.267 266.0117,362.1459 Q266.0117,359.0165 267.3315,357.3647 Q268.6514,355.7128 271.1582,355.7128 Q271.8638,355.7128 272.5112,355.8622 Q273.1587,356.0116 273.7231,356.3105 L273.7231,359.0331 Q273.0923,358.4521 272.4988,358.1823 Q271.9053,357.9125 271.2744,357.9125 Q269.9297,357.9125 269.2449,358.9792 Q268.5601,360.0458 268.5601,362.1459 Q268.5601,364.2377 269.2449,365.3044 Q269.9297,366.371 271.2744,366.371 Q271.9053,366.371 272.4988,366.1012 Q273.0923,365.8315 273.7231,365.2504 Z " fill="#000000"/><text fill="#000000" font-family="sans-serif" font-size="14" lengthAdjust="spacing" textLength="59" x="291.75" y="367.121">Program</text><line style="stroke:#181818;stroke-width:0.5;" x1="209" x2="401" y1="377.83" y2="377.83"/><line style="stroke:#181818;stroke-width:0.5;" x1="209" x2="401" y1="385.83" y2="385.83"/><ellipse cx="219" cy="399.5741" fill="#84BE84" rx="3" ry="3" style="stroke:#038048;stroke-width:1.0;"/><text fill="#000000" font-family="sans-serif" font-size="14" lengthAdjust="spacing" textLength="168" x="228" y="403.3652">Main(args: string[]): void</text></g><!--MD5=[2968812eea9e6d13b29b91be319c97e9]
reverse link SeatReservationSystem to Program--><g id="link_SeatReservationSystem_Program"><path codeLine="23" d="M305,300.6 C305,317.31 305,332.8 305,345.41 " fill="none" id="SeatReservationSystem-backto-Program" style="stroke:#181818;stroke-width:1.0;"/><polygon fill="none" points="305,287.82,301,293.82,305,299.82,309,293.82,305,287.82" style="stroke:#181818;stroke-width:1.0;"/></g><!--MD5=[9205b60fd2ef71caf48d77ede749e374]
@startuml szinhaz

class SeatReservationSystem {
    - Rows: int
    - SeatsPerRow: int
    - ReservedPercentage: double
    - ReservationDataFile: string
    - seats: bool[,]
    + SeatReservationSystem()
    - InitializeSeats(): void
    - PrintSeatMap(): void
    - SaveReservationData(reservations: Dictionary<string, List<Tuple<int, int>>>): void
    - LoadReservationData(): Dictionary<string, List<Tuple<int, int>>>
    + Run(): void
    - MakeReservation(reservations: Dictionary<string, List<Tuple<int, int>>>): void
    - CancelReservation(reservations: Dictionary<string, List<Tuple<int, int>>>): void
    - ModifyReservation(reservations: Dictionary<string, List<Tuple<int, int>>>): void
}

class Program {
    + Main(args: string[]): void
}

SeatReservationSystem o- - Program

@enduml

PlantUML version 1.2022.7(Mon Aug 22 19:01:30 CEST 2022)
(GPL source distribution)
Java Runtime: OpenJDK Runtime Environment
JVM: OpenJDK 64-Bit Server VM
Default Encoding: UTF-8
Language: en
Country: HU
--></g></svg>